<mxfile host="app.diagrams.net" modified="2024-06-16T07:42:55.259Z" agent="Mozilla/5.0 (Windows NT 10.0; Win64; x64) AppleWebKit/537.36 (KHTML, like Gecko) Chrome/125.0.0.0 Safari/537.36" etag="Zu-y-1UKCY0ZWBsNpIba" version="24.5.4" type="device">
  <diagram name="Trang-1" id="16Yr520JULTaiHAx0z4w">
    <mxGraphModel dx="1050" dy="522" grid="1" gridSize="10" guides="1" tooltips="1" connect="1" arrows="1" fold="1" page="1" pageScale="1" pageWidth="827" pageHeight="1169" math="0" shadow="0">
      <root>
        <mxCell id="0" />
        <mxCell id="1" parent="0" />
        <mxCell id="IHhdoig0bqFt07xvbURu-6" value="" style="endArrow=classic;html=1;rounded=0;entryX=0.5;entryY=0;entryDx=0;entryDy=0;exitX=1;exitY=0.5;exitDx=0;exitDy=0;" edge="1" parent="1">
          <mxGeometry width="50" height="50" relative="1" as="geometry">
            <mxPoint x="480" y="160" as="sourcePoint" />
            <mxPoint x="555" y="300" as="targetPoint" />
            <Array as="points">
              <mxPoint x="555" y="160" />
            </Array>
          </mxGeometry>
        </mxCell>
        <mxCell id="IHhdoig0bqFt07xvbURu-7" value="&lt;div style=&quot;&quot;&gt;- ID &amp;lt;String&amp;gt;&lt;/div&gt;&lt;div style=&quot;&quot;&gt;-Name &amp;lt;String&amp;gt;&lt;/div&gt;&lt;div style=&quot;&quot;&gt;&lt;div&gt;-string getId()&amp;nbsp;&lt;/div&gt;&lt;div&gt;&lt;span style=&quot;background-color: initial;&quot;&gt;&amp;nbsp;-string getName()&amp;nbsp;&lt;/span&gt;&lt;/div&gt;&lt;/div&gt;" style="shape=internalStorage;whiteSpace=wrap;html=1;backgroundOutline=1;dx=0;dy=30;align=left;" vertex="1" parent="1">
          <mxGeometry x="300" y="100" width="180" height="130" as="geometry" />
        </mxCell>
        <mxCell id="IHhdoig0bqFt07xvbURu-8" value="&lt;span style=&quot;color: rgb(0, 0, 0); font-family: Helvetica; font-size: 14px; font-style: normal; font-variant-ligatures: normal; font-variant-caps: normal; letter-spacing: normal; orphans: 2; text-align: right; text-indent: 0px; text-transform: none; widows: 2; word-spacing: 0px; -webkit-text-stroke-width: 0px; white-space: normal; background-color: rgb(251, 251, 251); text-decoration-thickness: initial; text-decoration-style: initial; text-decoration-color: initial; float: none; display: inline !important;&quot;&gt;USER&lt;/span&gt;" style="text;whiteSpace=wrap;html=1;fontStyle=1;fontSize=14;" vertex="1" parent="1">
          <mxGeometry x="370" y="100" width="70" height="40" as="geometry" />
        </mxCell>
        <mxCell id="IHhdoig0bqFt07xvbURu-9" value="" style="endArrow=classic;html=1;rounded=0;entryX=0.5;entryY=0;entryDx=0;entryDy=0;exitX=0;exitY=0.5;exitDx=0;exitDy=0;" edge="1" parent="1" source="IHhdoig0bqFt07xvbURu-7">
          <mxGeometry width="50" height="50" relative="1" as="geometry">
            <mxPoint x="290" y="160" as="sourcePoint" />
            <mxPoint x="195" y="300" as="targetPoint" />
            <Array as="points">
              <mxPoint x="195" y="165" />
            </Array>
          </mxGeometry>
        </mxCell>
        <mxCell id="IHhdoig0bqFt07xvbURu-12" value="" style="group" vertex="1" connectable="0" parent="1">
          <mxGeometry x="470" y="300" width="180" height="210" as="geometry" />
        </mxCell>
        <mxCell id="IHhdoig0bqFt07xvbURu-10" value="&lt;div style=&quot;&quot;&gt;&lt;div&gt;-string lichThamKham;&lt;/div&gt;&lt;div&gt;-string benhAn;&lt;/div&gt;&lt;div&gt;&lt;br&gt;&lt;/div&gt;&lt;div&gt;fuction:&lt;/div&gt;&lt;div&gt;-displayInfo();&lt;/div&gt;&lt;div&gt;-hienThiLichThamKham();&lt;/div&gt;&lt;div&gt;-hienThiBenhAn();&lt;/div&gt;&lt;div&gt;-hienThiThongTinCaNhan();&lt;/div&gt;&lt;div&gt;-datLichThamKham();&lt;/div&gt;&lt;/div&gt;" style="shape=internalStorage;whiteSpace=wrap;html=1;backgroundOutline=1;dx=0;dy=30;align=left;" vertex="1" parent="IHhdoig0bqFt07xvbURu-12">
          <mxGeometry width="180" height="210" as="geometry" />
        </mxCell>
        <mxCell id="IHhdoig0bqFt07xvbURu-11" value="Khách Hàng" style="text;html=1;align=center;verticalAlign=middle;resizable=0;points=[];autosize=1;strokeColor=none;fillColor=none;fontStyle=1;fontSize=14;" vertex="1" parent="IHhdoig0bqFt07xvbURu-12">
          <mxGeometry x="40" width="100" height="30" as="geometry" />
        </mxCell>
        <mxCell id="IHhdoig0bqFt07xvbURu-13" value="" style="group" vertex="1" connectable="0" parent="1">
          <mxGeometry x="100" y="310" width="180" height="130" as="geometry" />
        </mxCell>
        <mxCell id="IHhdoig0bqFt07xvbURu-14" value="&lt;div style=&quot;&quot;&gt;&lt;br&gt;&lt;/div&gt;" style="shape=internalStorage;whiteSpace=wrap;html=1;backgroundOutline=1;dx=0;dy=30;align=left;" vertex="1" parent="IHhdoig0bqFt07xvbURu-13">
          <mxGeometry width="180" height="130" as="geometry" />
        </mxCell>
        <mxCell id="IHhdoig0bqFt07xvbURu-15" value="Nhân Viên&amp;nbsp;" style="text;html=1;align=center;verticalAlign=middle;resizable=0;points=[];autosize=1;strokeColor=none;fillColor=none;fontStyle=1;fontSize=14;" vertex="1" parent="IHhdoig0bqFt07xvbURu-13">
          <mxGeometry x="45" width="90" height="30" as="geometry" />
        </mxCell>
      </root>
    </mxGraphModel>
  </diagram>
</mxfile>
